<svg width="16" height="16" viewBox="0 0 16 16" fill="none" xmlns="http://www.w3.org/2000/svg">
<path d="M8.38086 4.51628C8.69298 4.51511 8.98058 4.61295 9.23437 4.77019C9.41786 4.88388 9.54221 4.88469 9.66276 4.84245C10.0314 4.71328 10.4029 4.61777 10.7767 4.5573C11.269 4.47766 11.7431 4.57285 12.1745 4.82357C12.5076 5.01723 12.7974 5.22338 13.0254 5.44597C13.1644 5.58173 13.3412 5.72234 13.5605 5.86524C13.6828 5.94489 13.8145 6.03563 13.9069 6.1237C13.9324 6.14805 13.9725 6.18825 14.0111 6.24154C14.0368 6.27713 14.1298 6.40751 14.1445 6.60092C14.151 6.68613 14.1417 6.78575 14.1042 6.88737C14.111 6.91102 14.1179 6.93763 14.127 6.96615C14.2786 7.44647 14.2606 7.93481 14.0801 8.4056C14.008 8.59368 14.0061 8.76459 14.0697 8.94727C14.236 9.42506 14.2326 9.91566 14.0618 10.3919C13.9719 10.6428 13.9398 10.8829 13.957 11.1178C13.9889 11.5527 13.9216 11.9727 13.7461 12.3646C13.6096 12.6692 13.4543 12.9737 13.2806 13.2773C13.0049 13.7591 12.5564 14.0345 12.0124 14.0918C11.6882 14.1259 11.3688 14.1735 11.0547 14.2344C10.5574 14.3307 10.0716 14.2426 9.61979 14.0072C9.36102 13.8723 9.12089 13.808 8.89518 13.7969C8.55861 13.7803 8.22198 13.7611 7.88542 13.7396C7.61363 13.7222 7.34314 13.7423 7.07292 13.8001C6.6121 13.8988 6.15456 13.8578 5.7181 13.6797C5.24274 13.4856 4.88547 13.1347 4.63997 12.6803C4.49761 12.4168 4.42032 12.1241 4.44076 11.8138C4.46106 11.5055 4.57494 11.2259 4.74219 10.9805C4.84904 10.8237 4.83723 10.744 4.79036 10.6478C4.59809 10.2532 4.47432 9.8463 4.42773 9.42969C4.37188 8.93004 4.49849 8.45218 4.75911 8.01433C4.86494 7.83646 4.86561 7.71329 4.81901 7.5879C4.66541 7.17462 4.59042 6.7339 4.58724 6.27214C4.58518 5.96873 4.66046 5.63108 4.91016 5.36198C5.15908 5.09383 5.48965 4.9925 5.79102 4.96941C6.2103 4.93727 6.59898 4.93249 6.95443 4.95704C7.0994 4.96705 7.28569 4.92845 7.52865 4.77605C7.78146 4.61743 8.06879 4.5175 8.38086 4.51628ZM8.38607 5.84961C8.36481 5.8497 8.31809 5.85514 8.23763 5.9056C7.81399 6.1714 7.35056 6.3208 6.86263 6.28711C6.59243 6.26845 6.27964 6.27121 5.92187 6.29753C5.92742 6.60556 5.9782 6.87937 6.06901 7.1237C6.27 7.66482 6.19578 8.20801 5.90495 8.69662C5.76884 8.9253 5.73465 9.11432 5.75325 9.28125C5.78121 9.53131 5.85705 9.79177 5.98958 10.0638C6.26736 10.6342 6.19111 11.2214 5.84375 11.7311C5.78391 11.819 5.77265 11.8741 5.77083 11.9017C5.7692 11.9273 5.7729 11.9717 5.81315 12.0462C5.93338 12.2688 6.07176 12.384 6.222 12.4453C6.41121 12.5225 6.59622 12.5392 6.79427 12.4967C7.18286 12.4136 7.57531 12.3843 7.97005 12.4095C8.30006 12.4306 8.63029 12.4486 8.96029 12.4648C9.40113 12.4865 9.82789 12.6124 10.2357 12.8249C10.4505 12.9368 10.6314 12.9579 10.8008 12.9251C11.1532 12.8568 11.5106 12.8037 11.8724 12.7656C12.0141 12.7507 12.0724 12.7048 12.1237 12.6152C12.2769 12.3474 12.4118 12.082 12.5293 11.8197C12.6078 11.6445 12.6439 11.4472 12.627 11.2155C12.5953 10.7838 12.6582 10.3571 12.8073 9.94141C12.8754 9.75119 12.8755 9.57479 12.8099 9.38607C12.6415 8.90221 12.6518 8.4062 12.8353 7.92774C12.9103 7.73207 12.9143 7.55337 12.8555 7.36719C12.8092 7.2208 12.7675 7.0666 12.7474 6.92448C12.504 6.75995 12.2849 6.5858 12.0944 6.39974C11.9707 6.27896 11.7799 6.13665 11.5046 5.97657C11.3274 5.87359 11.1639 5.84551 10.9896 5.8737C10.6968 5.92107 10.4014 5.99654 10.1035 6.10092C9.55746 6.29218 9.01503 6.20301 8.5319 5.90365C8.45286 5.85471 8.40726 5.84957 8.38607 5.84961ZM9.17122 1.80079C9.55681 1.8036 10.0616 1.87657 10.6634 2H10.6667C11.0349 2 11.3333 2.29848 11.3333 2.66667C11.3333 3.03486 11.0349 3.33334 10.6667 3.33334H10.5312L10.4635 3.31902C9.8534 3.19134 9.42774 3.13609 9.16211 3.13412C8.95052 3.13258 8.72323 3.18574 8.47396 3.31511C7.9663 3.57866 7.41951 3.60303 6.89453 3.36849C6.64113 3.25532 6.40338 3.20653 6.17578 3.20964C5.82197 3.21448 5.46821 3.20351 5.11458 3.17579C4.86358 3.15611 4.61395 3.18166 4.36198 3.25521C4.1267 3.32392 3.96209 3.42523 3.84375 3.54493C3.70156 3.68881 3.59539 3.85514 3.52279 4.04948C3.47571 4.17555 3.46267 4.33346 3.52669 4.55079C3.6585 4.99834 3.66759 5.45398 3.55143 5.90495C3.48207 6.17416 3.45561 6.43953 3.47005 6.70248C3.487 7.01086 3.52128 7.31964 3.57292 7.62891C3.64287 8.04785 3.63075 8.46792 3.53776 8.88412C3.4782 9.1507 3.46169 9.41403 3.48633 9.67644C3.51886 10.0228 3.52124 10.4202 3.37044 10.7383L3.34766 10.7865L3.31706 10.8307L3.30859 10.8418C3.23156 11.1248 2.97411 11.3333 2.66667 11.3333C2.29848 11.3333 2 11.0349 2 10.6667V10.3926L2.16276 10.1569C2.16419 10.1467 2.16669 10.1333 2.16797 10.1165C2.17327 10.0469 2.17224 9.94404 2.15885 9.80144C2.12089 9.39731 2.147 8.99372 2.23633 8.59375C2.29226 8.34341 2.29912 8.09657 2.25781 7.84896C2.19816 7.49169 2.15835 7.13357 2.13867 6.7754C2.1165 6.3717 2.15801 5.96972 2.26042 5.57227C2.31589 5.35681 2.31253 5.14597 2.24805 4.92709C2.11572 4.47784 2.11023 4.02052 2.27344 3.58334C2.41117 3.21449 2.61922 2.88736 2.89518 2.60808C3.19509 2.3046 3.56793 2.09802 3.98828 1.97527C4.39184 1.85745 4.80328 1.81379 5.21875 1.84636C5.53178 1.8709 5.84471 1.88124 6.15755 1.87696C6.59656 1.87095 7.02561 1.96645 7.4388 2.15105C7.58038 2.21426 7.7005 2.2146 7.85937 2.13217C8.27661 1.91556 8.71631 1.79752 9.17122 1.80079Z" fill="white"/>
</svg>
