<svg width="66" height="32" viewBox="0 0 66 32" fill="none" xmlns="http://www.w3.org/2000/svg">
<path d="M1.79932 12.1195C1.79932 6.59669 6.27647 2.11954 11.7993 2.11954H52.7993C58.3222 2.11954 62.7993 6.59669 62.7993 12.1195V19.1195C62.7993 24.6424 58.3222 29.1195 52.7993 29.1195H11.7993C6.27647 29.1195 1.79932 24.6424 1.79932 19.1195V12.1195Z" fill="#34C759"/>
<path d="M12.9243 1.8091L13.3233 3.25506L12.9243 1.8091ZM13.4868 1.65388L13.0878 0.207923L13.4868 1.65388ZM15.1743 1.7064L14.9019 3.18146L15.1743 1.7064ZM17.9868 2.40057L17.5713 3.84189L17.9868 2.40057ZM19.1118 2.61972L19.263 1.12736L19.1118 2.61972ZM21.9243 2.22037L21.246 0.882479L21.9243 2.22037ZM24.7368 2.13558L25.1516 0.694064L24.7368 2.13558ZM25.8618 2.15909L25.5036 0.702493L25.8618 2.15909ZM28.1118 1.80956L27.9383 3.29949L28.1118 1.80956ZM29.2368 1.94054L29.4103 0.450605L29.2368 1.94054ZM35.4243 1.63491L35.6502 3.1178L35.4243 1.63491ZM35.9868 1.54923L35.761 0.0663323L35.9868 1.54923ZM39.3618 1.774L39.5123 0.281563L39.3618 1.774ZM39.9243 1.83071L39.7738 3.32314L39.9243 1.83071ZM44.9868 2.36204L44.9135 0.863839L44.9868 2.36204ZM49.4868 2.56207L49.3803 4.05828L49.4868 2.56207ZM50.6118 2.38822L50.0787 0.986154L50.6118 2.38822ZM54.9458 3.1167L54.9455 4.6167L54.9458 3.1167ZM57.1247 3.32868L57.6907 1.93955L57.1247 3.32868ZM57.6442 3.54035L57.0782 4.92948L57.6442 3.54035ZM58.1637 3.75203L57.5978 5.14115L58.1637 3.75203ZM59.2294 4.23049L59.8878 2.88273L59.2294 4.23049ZM59.7755 4.49729L59.117 5.84505L59.7755 4.49729ZM60.3216 4.76408L60.98 3.41632L60.3216 4.76408ZM60.9048 5.69212L59.4071 5.77612L60.9048 5.69212ZM60.9789 7.01462L62.4766 6.93062L60.9789 7.01462ZM61.1734 8.17249L59.7434 8.62553L61.1734 8.17249ZM61.488 9.16574L62.918 8.7127L61.488 9.16574ZM62.1378 10.1526L61.0794 11.2156L62.1378 10.1526ZM63.1226 11.1332L62.0642 12.1961L63.1226 11.1332ZM63.5991 12.1953L65.0985 12.237L63.5991 12.1953ZM63.5673 13.3391L65.0667 13.3808L63.5673 13.3391ZM63.1845 14.4734L61.9281 13.654L63.1845 14.4734ZM62.4507 15.5984L63.707 16.4179L62.4507 15.5984ZM62.4856 16.7234L61.2651 17.5954L62.4856 16.7234ZM63.2894 17.8484L64.5099 16.9765L63.2894 17.8484ZM63.6346 19.0022L62.1414 18.8591V18.8591L63.6346 19.0022ZM63.5779 19.5934L65.0711 19.7365L63.5779 19.5934ZM63.5213 20.1846L62.0281 20.0415L63.5213 20.1846ZM62.9415 21.2156L61.9763 20.0673L62.9415 21.2156ZM61.8951 22.0951L62.8603 23.2433L61.8951 22.0951ZM61.457 23.2191L62.9456 23.0341L61.457 23.2191ZM61.6272 24.5877L60.1386 24.7727L61.6272 24.5877ZM61.2396 25.65L62.1765 26.8214L61.2396 25.65ZM60.7669 26.0281L59.83 24.8567L60.7669 26.0281ZM60.2943 26.4061L59.3574 25.2347L60.2943 26.4061ZM59.2805 27.0054L58.7128 25.617L59.2805 27.0054ZM58.7393 27.2267L59.3069 28.6151L58.7393 27.2267ZM58.1981 27.448L57.6304 26.0595L58.1981 27.448ZM57.1572 27.9116L56.5025 26.562L57.1572 27.9116ZM56.6574 28.154L57.3121 29.5036L56.6574 28.154ZM55.112 28.7819L55.4921 30.2329L55.112 28.7819ZM54.0201 29.0679L53.64 27.6169L54.0201 29.0679ZM52.9097 29.0986L53.2025 27.6275L52.9097 29.0986ZM52.3453 28.9863L52.6381 27.5151L52.3453 28.9863ZM51.7809 28.874L51.4881 30.3451L51.7809 28.874ZM50.654 29.0325L50.0032 27.681L50.654 29.0325ZM50.0915 29.3033L50.7423 30.6548L50.0915 29.3033ZM49.529 29.5742L50.1798 30.9257L49.529 29.5742ZM48.404 29.8378L48.3847 31.3377L48.404 29.8378ZM47.279 29.8234L47.2983 28.3235L47.279 29.8234ZM46.154 29.7946L46.2113 28.2957L46.154 29.7946ZM45.029 29.7516L44.9716 31.2505L45.029 29.7516ZM43.904 29.6266L43.6326 31.1018V31.1018L43.904 29.6266ZM42.779 29.4196L43.0504 27.9444V27.9444L42.779 29.4196ZM41.654 29.0935L42.2061 27.6988L41.654 29.0935ZM41.0915 28.8708L41.6436 27.4761L41.0915 28.8708ZM40.529 28.6481L39.9769 30.0428L40.529 28.6481ZM39.404 28.4199L39.4188 26.92L39.404 28.4199ZM38.8415 28.4144L38.8267 29.9143L38.8415 28.4144ZM38.279 28.4088L38.2938 26.9089L38.279 28.4088ZM36.5915 29.1803L35.739 27.9461L36.5915 29.1803ZM36.029 29.5688L35.1765 28.3346L36.029 29.5688ZM34.904 29.7889L35.3343 28.352L34.904 29.7889ZM33.779 29.452L33.3487 30.889L33.779 29.452ZM32.654 29.325L32.5438 27.8291L32.654 29.325ZM32.0915 29.3665L32.2017 30.8624L32.0915 29.3665ZM31.529 29.4079L31.4188 27.912L31.529 29.4079ZM30.404 29.1421L29.6848 30.4584L30.404 29.1421ZM29.279 28.5275L29.9982 27.2111L29.279 28.5275ZM28.154 28.3326L28.4482 29.8035L28.154 28.3326ZM27.029 28.5576L26.7348 27.0868L27.029 28.5576ZM24.779 28.392L24.535 29.872L24.779 28.392ZM23.654 28.454L24.052 29.9003L23.654 28.454ZM22.529 28.7637L22.131 27.3174L22.529 28.7637ZM20.279 29.4611L20.7382 30.8891L20.279 29.4611ZM19.154 29.5364L19.4308 28.0622L19.154 29.5364ZM18.029 29.3252L17.7522 30.7995L18.029 29.3252ZM16.904 29.2361L16.948 30.7355L16.904 29.2361ZM15.779 29.2691L15.735 27.7698L15.779 29.2691ZM14.654 29.3623L14.8565 30.8486L14.654 29.3623ZM13.529 29.5156L13.3265 28.0293L13.529 29.5156ZM12.4158 29.3538L13.0118 27.9773L12.4158 29.3538ZM11.3144 28.877L10.7184 30.2535L11.3144 28.877ZM10.1393 28.8103L9.74151 27.364L10.1393 28.8103ZM8.89037 29.1537L8.49263 27.7074L8.89037 29.1537ZM7.90112 28.7728L6.64928 29.5992L7.90112 28.7728ZM7.1715 27.6676L8.42334 26.8412L7.1715 27.6676ZM6.23081 26.948L6.64849 25.5073L6.23081 26.948ZM5.65492 26.781L5.23723 28.2217L5.65492 26.781ZM5.07903 26.6141L4.66134 28.0547L5.07903 26.6141ZM4.12087 26.0064L2.98777 26.9893L4.12087 26.0064ZM3.35632 25.1251L4.48941 24.1421L3.35632 25.1251ZM2.67307 24.1733L3.96561 23.4121L2.67307 24.1733ZM2.07112 23.1511L0.778589 23.9122L2.07112 23.1511ZM2.01344 22.0162L3.41091 22.5613L2.01344 22.0162ZM2.50002 20.7687L1.10255 20.2236L2.50002 20.7687ZM2.57174 19.6075L4.00069 19.1513L2.57174 19.6075ZM2.22861 18.5327L3.65756 18.0765L2.22861 18.5327ZM2.12801 17.4328L0.639803 17.2451L2.12801 17.4328ZM2.26993 16.3078L0.781725 16.1201L2.26993 16.3078ZM1.62156 14.0578L0.241697 14.646L1.62156 14.0578ZM1.61472 12.9432L2.99674 13.5263L1.61472 12.9432ZM2.47788 10.7822L1.05155 10.3179L2.47788 10.7822ZM2.80656 9.7725L1.38023 9.30819L2.80656 9.7725ZM3.08497 7.52889L1.58818 7.4307L3.08497 7.52889ZM3.48601 6.51705L2.33737 5.55237L3.48601 6.51705ZM4.21207 5.65255L5.36071 6.61724L4.21207 5.65255ZM5.71826 3.91828L4.59108 2.92861L5.71826 3.91828ZM6.66093 3.33831L7.03825 4.79008L6.66093 3.33831ZM7.78414 3.04639L7.40682 1.59462L7.78414 3.04639ZM8.85362 2.5563L8.01222 1.31451L8.85362 2.5563ZM9.3615 2.21217L10.2029 3.45396L9.3615 2.21217ZM9.86937 1.86805L9.02797 0.62626L9.86937 1.86805ZM10.7328 1.59275L11.0179 0.120102L10.7328 1.59275ZM11.4438 1.73042L11.1587 3.20307L11.4438 1.73042ZM12.9243 1.8091L13.3233 3.25506L13.8858 3.09984L13.4868 1.65388L13.0878 0.207923L12.5253 0.363142L12.9243 1.8091ZM13.4868 1.65388L13.8858 3.09984C14.0467 3.05546 14.1922 3.0504 14.3394 3.07759L14.6118 1.60253L14.8842 0.127467C14.2815 0.0161738 13.677 0.0453477 13.0878 0.207923L13.4868 1.65388ZM14.6118 1.60253L14.3394 3.07759L14.9019 3.18146L15.1743 1.7064L15.4467 0.231334L14.8842 0.127467L14.6118 1.60253ZM15.1743 1.7064L14.9019 3.18146L15.4644 3.28533L15.7368 1.81026L16.0092 0.335202L15.4467 0.231334L15.1743 1.7064ZM15.7368 1.81026L15.4644 3.28533C15.7901 3.34546 16.1174 3.42276 16.4463 3.51759L16.8618 2.07628L17.2773 0.634967C16.8563 0.513603 16.4335 0.413556 16.0092 0.335202L15.7368 1.81026ZM16.8618 2.07628L16.4463 3.51759L17.0088 3.67974L17.4243 2.23843L17.8398 0.797114L17.2773 0.634967L16.8618 2.07628ZM17.4243 2.23843L17.0088 3.67974L17.5713 3.84189L17.9868 2.40057L18.4023 0.959262L17.8398 0.797114L17.4243 2.23843ZM17.9868 2.40057L17.5713 3.84189C18.0297 3.974 18.4931 4.0647 18.9606 4.11208L19.1118 2.61972L19.263 1.12736C18.9806 1.09874 18.694 1.04334 18.4023 0.959262L17.9868 2.40057ZM19.1118 2.61972L18.9606 4.11208L19.5231 4.16907L19.6743 2.67671L19.8255 1.18436L19.263 1.12736L19.1118 2.61972ZM19.6743 2.67671L19.5231 4.16907L20.0856 4.22607L20.2368 2.73371L20.388 1.24135L19.8255 1.18436L19.6743 2.67671ZM20.2368 2.73371L20.0856 4.22607C20.7784 4.29627 21.4396 4.14785 22.0401 3.84343L21.3618 2.50554L20.6835 1.16765C20.534 1.24345 20.4452 1.24715 20.388 1.24135L20.2368 2.73371ZM21.3618 2.50554L22.0401 3.84343L22.6026 3.55826L21.9243 2.22037L21.246 0.882479L20.6835 1.16765L21.3618 2.50554ZM21.9243 2.22037L22.6026 3.55826L23.1651 3.27309L22.4868 1.9352L21.8085 0.597311L21.246 0.882479L21.9243 2.22037ZM22.4868 1.9352L23.1651 3.27309C23.1883 3.26135 23.2031 3.2561 23.21 3.25398C23.2166 3.25195 23.2172 3.25237 23.2128 3.25286C23.2082 3.25335 23.2027 3.25344 23.1975 3.25298C23.1925 3.25254 23.192 3.25193 23.197 3.2534L23.6118 1.81188L24.0266 0.370367C23.2575 0.149085 22.4931 0.250276 21.8085 0.597311L22.4868 1.9352ZM23.6118 1.81188L23.197 3.2534L23.7595 3.41525L24.1743 1.97373L24.5891 0.532216L24.0266 0.370367L23.6118 1.81188ZM24.1743 1.97373L23.7595 3.41525L24.322 3.5771L24.7368 2.13558L25.1516 0.694064L24.5891 0.532216L24.1743 1.97373ZM24.7368 2.13558L24.322 3.5771C24.9462 3.75668 25.5877 3.7712 26.2201 3.61568L25.8618 2.15909L25.5036 0.702493C25.3859 0.73143 25.2774 0.730274 25.1516 0.694064L24.7368 2.13558ZM25.8618 2.15909L26.2201 3.61568L26.7826 3.47734L26.4243 2.02075L26.0661 0.564152L25.5036 0.702493L25.8618 2.15909ZM26.4243 2.02075L26.7826 3.47734L27.3451 3.339L26.9868 1.88241L26.6286 0.425811L26.0661 0.564152L26.4243 2.02075ZM26.9868 1.88241L27.3451 3.339C27.5503 3.28853 27.7452 3.27701 27.9383 3.29949L28.1118 1.80956L28.2853 0.319621C27.7284 0.254781 27.1734 0.29183 26.6286 0.425811L26.9868 1.88241ZM28.1118 1.80956L27.9383 3.29949L28.5008 3.36498L28.6743 1.87505L28.8478 0.385113L28.2853 0.319621L28.1118 1.80956ZM28.6743 1.87505L28.5008 3.36498L29.0633 3.43048L29.2368 1.94054L29.4103 0.450605L28.8478 0.385113L28.6743 1.87505ZM29.2368 1.94054L29.0633 3.43048C29.5282 3.4846 29.9942 3.49645 30.4603 3.46577L30.3618 1.96901L30.2633 0.472248C29.9794 0.490933 29.6954 0.483804 29.4103 0.450605L29.2368 1.94054ZM30.3618 1.96901L30.4603 3.46577L31.0228 3.42875L30.9243 1.93199L30.8258 0.435225L30.2633 0.472248L30.3618 1.96901ZM30.9243 1.93199L31.0228 3.42875L31.5853 3.39173L31.4868 1.89496L31.3883 0.398203L30.8258 0.435225L30.9243 1.93199ZM31.4868 1.89496L31.5853 3.39173C31.939 3.36845 32.2927 3.35275 32.6463 3.34463L32.6118 1.84502L32.5774 0.345417C32.181 0.354522 31.7846 0.372119 31.3883 0.398203L31.4868 1.89496ZM32.6118 1.84502L32.6463 3.34463L33.2088 3.33171L33.1743 1.8321L33.1399 0.332497L32.5774 0.345417L32.6118 1.84502ZM33.1743 1.8321L33.2088 3.33171L33.7713 3.31879L33.7368 1.81918L33.7024 0.319577L33.1399 0.332497L33.1743 1.8321ZM33.7368 1.81918L33.7713 3.31879C34.2111 3.30868 34.65 3.27014 35.0877 3.20348L34.8618 1.72058L34.636 0.237687C34.3236 0.285259 34.0126 0.312452 33.7024 0.319577L33.7368 1.81918ZM34.8618 1.72058L35.0877 3.20348L35.6502 3.1178L35.4243 1.63491L35.1985 0.152009L34.636 0.237687L34.8618 1.72058ZM35.4243 1.63491L35.6502 3.1178L36.2127 3.03213L35.9868 1.54923L35.761 0.0663323L35.1985 0.152009L35.4243 1.63491ZM35.9868 1.54923L36.2127 3.03213C36.458 2.99477 36.7005 2.99011 36.9437 3.01754L37.1118 1.52699L37.2799 0.0364332C36.7731 -0.0207145 36.2657 -0.0105453 35.761 0.0663323L35.9868 1.54923ZM37.1118 1.52699L36.9437 3.01754L37.5062 3.08097L37.6743 1.59042L37.8424 0.0998662L37.2799 0.0364332L37.1118 1.52699ZM37.6743 1.59042L37.5062 3.08097L38.0687 3.1444L38.2368 1.65385L38.4049 0.163299L37.8424 0.0998662L37.6743 1.59042ZM38.2368 1.65385L38.0687 3.1444C38.4496 3.18735 38.8305 3.22803 39.2113 3.26643L39.3618 1.774L39.5123 0.281563C39.1432 0.244348 38.774 0.204927 38.4049 0.163299L38.2368 1.65385ZM39.3618 1.774L39.2113 3.26643L39.7738 3.32314L39.9243 1.83071L40.0748 0.338276L39.5123 0.281563L39.3618 1.774ZM39.9243 1.83071L39.7738 3.32314L40.3363 3.37986L40.4868 1.88742L40.6373 0.394988L40.0748 0.338276L39.9243 1.83071ZM40.4868 1.88742L40.3363 3.37986C40.6513 3.41161 40.9678 3.46267 41.2861 3.53348L41.6118 2.06927L41.9375 0.605061C41.5058 0.509026 41.0723 0.438851 40.6373 0.394988L40.4868 1.88742ZM41.6118 2.06927L41.2861 3.53348L41.8486 3.65861L42.1743 2.1944L42.5 0.730195L41.9375 0.605061L41.6118 2.06927ZM42.1743 2.1944L41.8486 3.65861L42.4111 3.78374L42.7368 2.31953L43.0625 0.855328L42.5 0.730195L42.1743 2.1944ZM42.7368 2.31953L42.4111 3.78374C42.9139 3.8956 43.4231 3.9404 43.9352 3.91533L43.8618 2.41713L43.7885 0.918922C43.5505 0.930572 43.3097 0.91031 43.0625 0.855328L42.7368 2.31953ZM43.8618 2.41713L43.9352 3.91533L44.4977 3.88779L44.4243 2.38959L44.351 0.89138L43.7885 0.918922L43.8618 2.41713ZM44.4243 2.38959L44.4977 3.88779L45.0602 3.86025L44.9868 2.36204L44.9135 0.863839L44.351 0.89138L44.4243 2.38959ZM44.9868 2.36204L45.0602 3.86025C45.3869 3.84425 45.7135 3.84406 46.0403 3.85966L46.1118 2.36137L46.1834 0.863075C45.7601 0.84286 45.3367 0.843114 44.9135 0.863839L44.9868 2.36204ZM46.1118 2.36137L46.0403 3.85966L46.6028 3.88652L46.6743 2.38823L46.7459 0.88994L46.1834 0.863075L46.1118 2.36137ZM46.6743 2.38823L46.6028 3.88652L47.1653 3.91339L47.2368 2.4151L47.3084 0.916805L46.7459 0.88994L46.6743 2.38823ZM47.2368 2.4151L47.1653 3.91339C47.5286 3.93074 47.8919 3.95235 48.2553 3.97821L48.3618 2.482L48.4683 0.985782C48.0817 0.958265 47.695 0.935272 47.3084 0.916805L47.2368 2.4151ZM48.3618 2.482L48.2553 3.97821L48.8178 4.01825L48.9243 2.52203L49.0308 1.02582L48.4683 0.985782L48.3618 2.482ZM48.9243 2.52203L48.8178 4.01825L49.3803 4.05828L49.4868 2.56207L49.5933 1.06585L49.0308 1.02582L48.9243 2.52203ZM49.4868 2.56207L49.3803 4.05828C49.9872 4.10148 50.5801 4.00507 51.1449 3.79029L50.6118 2.38822L50.0787 0.986154C49.8936 1.05654 49.7364 1.07604 49.5933 1.06585L49.4868 2.56207ZM50.6118 2.38822L51.1449 3.79029L51.7074 3.57641L51.1743 2.17434L50.6412 0.772274L50.0787 0.986154L50.6118 2.38822ZM51.1743 2.17434L51.7074 3.57641L52.2699 3.36253L51.7368 1.96046L51.2037 0.558394L50.6412 0.772274L51.1743 2.17434ZM51.7368 1.96046L52.2699 3.36253C52.2546 3.36835 52.1957 3.38505 52.1131 3.37526C52.0327 3.36574 51.9927 3.33862 52.0012 3.34418L52.8227 2.08909L53.6441 0.833987C52.9119 0.354799 52.0481 0.23732 51.2037 0.558394L51.7368 1.96046ZM52.8227 2.08909L52.0012 3.34418L52.5246 3.68669L53.346 2.43159L54.1674 1.17649L53.6441 0.833987L52.8227 2.08909ZM53.346 2.43159L52.5246 3.68669L53.0479 4.02919L53.8693 2.77409L54.6907 1.51899L54.1674 1.17649L53.346 2.43159ZM53.8693 2.77409L53.0479 4.02919C53.608 4.39573 54.2481 4.61657 54.9455 4.6167L54.9458 3.1167L54.9461 1.6167C54.906 1.61669 54.8285 1.60913 54.6907 1.51899L53.8693 2.77409ZM54.9458 3.1167L54.9455 4.6167L55.4986 4.6168L55.4989 3.1168L55.4992 1.6168L54.9461 1.6167L54.9458 3.1167ZM55.4989 3.1168L55.4986 4.6168L56.0518 4.6169L56.052 3.1169L56.0523 1.6169L55.4992 1.6168L55.4989 3.1168ZM56.052 3.1169L56.0518 4.6169C56.2237 4.61693 56.3894 4.64881 56.5587 4.7178L57.1247 3.32868L57.6907 1.93955C57.1673 1.72632 56.6178 1.61701 56.0523 1.6169L56.052 3.1169ZM57.1247 3.32868L56.5587 4.7178L57.0782 4.92948L57.6442 3.54035L58.2102 2.15123L57.6907 1.93955L57.1247 3.32868ZM57.6442 3.54035L57.0782 4.92948L57.5978 5.14115L58.1637 3.75203L58.7297 2.3629L58.2102 2.15123L57.6442 3.54035ZM58.1637 3.75203L57.5978 5.14115C57.9104 5.26852 58.2347 5.41401 58.5709 5.57826L59.2294 4.23049L59.8878 2.88273C59.4959 2.69126 59.1098 2.51776 58.7297 2.3629L58.1637 3.75203ZM59.2294 4.23049L58.5709 5.57826L59.117 5.84505L59.7755 4.49729L60.4339 3.14952L59.8878 2.88273L59.2294 4.23049ZM59.7755 4.49729L59.117 5.84505L59.6631 6.11184L60.3216 4.76408L60.98 3.41632L60.4339 3.14952L59.7755 4.49729ZM60.3216 4.76408L59.6631 6.11184C59.6223 6.0919 59.5377 6.03481 59.4704 5.92759C59.407 5.82675 59.406 5.75658 59.4071 5.77612L60.9048 5.69212L62.4024 5.60812C62.3506 4.68465 61.8832 3.85754 60.98 3.41632L60.3216 4.76408ZM60.9048 5.69212L59.4071 5.77612L59.4442 6.43736L60.9418 6.35337L62.4395 6.26937L62.4024 5.60812L60.9048 5.69212ZM60.9418 6.35337L59.4442 6.43736L59.4813 7.09861L60.9789 7.01462L62.4766 6.93062L62.4395 6.26937L60.9418 6.35337ZM60.9789 7.01462L59.4813 7.09861C59.5112 7.6327 59.592 8.14755 59.7434 8.62553L61.1734 8.17249L62.6033 7.71945C62.545 7.53527 62.4961 7.2782 62.4766 6.93062L60.9789 7.01462ZM61.1734 8.17249L59.7434 8.62553L59.9008 9.12216L61.3307 8.66911L62.7607 8.21607L62.6033 7.71945L61.1734 8.17249ZM61.3307 8.66911L59.9008 9.12216L60.0581 9.61878L61.488 9.16574L62.918 8.7127L62.7607 8.21607L61.3307 8.66911ZM61.488 9.16574L60.0581 9.61878C60.2562 10.244 60.6348 10.7729 61.0794 11.2156L62.1378 10.1526L63.1962 9.0897C62.9843 8.87872 62.9297 8.74966 62.918 8.7127L61.488 9.16574ZM62.1378 10.1526L61.0794 11.2156L61.5718 11.7059L62.6302 10.6429L63.6886 9.57998L63.1962 9.0897L62.1378 10.1526ZM62.6302 10.6429L61.5718 11.7059L62.0642 12.1961L63.1226 11.1332L64.181 10.0703L63.6886 9.57998L62.6302 10.6429ZM63.1226 11.1332L62.0642 12.1961C62.1229 12.2546 62.128 12.2772 62.1193 12.2578C62.115 12.2482 62.1091 12.2321 62.1048 12.2109C62.1006 12.1897 62.0992 12.1699 62.0997 12.1537L63.5991 12.1953L65.0985 12.237C65.123 11.3559 64.7345 10.6214 64.181 10.0703L63.1226 11.1332ZM63.5991 12.1953L62.0997 12.1537L62.0838 12.7255L63.5832 12.7672L65.0826 12.8089L65.0985 12.237L63.5991 12.1953ZM63.5832 12.7672L62.0838 12.7255L62.0679 13.2974L63.5673 13.3391L65.0667 13.3808L65.0826 12.8089L63.5832 12.7672ZM63.5673 13.3391L62.0679 13.2974C62.0662 13.3569 62.0481 13.47 61.9281 13.654L63.1845 14.4734L64.4408 15.2929C64.81 14.7269 65.0471 14.0838 65.0667 13.3808L63.5673 13.3391ZM63.1845 14.4734L61.9281 13.654L61.5612 14.2165L62.8176 15.0359L64.0739 15.8554L64.4408 15.2929L63.1845 14.4734ZM62.8176 15.0359L61.5612 14.2165L61.1943 14.779L62.4507 15.5984L63.707 16.4179L64.0739 15.8554L62.8176 15.0359ZM62.4507 15.5984L61.1943 14.779C60.9375 15.1727 60.7596 15.6578 60.7767 16.2076C60.7936 16.7533 60.9983 17.222 61.2651 17.5954L62.4856 16.7234L63.7061 15.8515C63.705 15.8499 63.7699 15.9436 63.7752 16.1143C63.7807 16.2891 63.7193 16.3992 63.707 16.4179L62.4507 15.5984ZM62.4856 16.7234L61.2651 17.5954L61.667 18.1579L62.8875 17.2859L64.108 16.414L63.7061 15.8515L62.4856 16.7234ZM62.8875 17.2859L61.667 18.1579L62.0689 18.7204L63.2894 17.8484L64.5099 16.9765L64.108 16.414L62.8875 17.2859ZM63.2894 17.8484L62.0689 18.7204C62.1208 18.7931 62.1358 18.8356 62.1396 18.8481C62.1424 18.8574 62.1416 18.8576 62.1414 18.8591L63.6346 19.0022L65.1278 19.1453C65.2056 18.333 64.9516 17.5948 64.5099 16.9765L63.2894 17.8484ZM63.6346 19.0022L62.1414 18.8591L62.0848 19.4503L63.5779 19.5934L65.0711 19.7365L65.1278 19.1453L63.6346 19.0022ZM63.5779 19.5934L62.0848 19.4503L62.0281 20.0415L63.5213 20.1846L65.0144 20.3277L65.0711 19.7365L63.5779 19.5934ZM63.5213 20.1846L62.0281 20.0415C62.0284 20.039 62.0294 20.0319 62.0323 20.0225C62.0353 20.013 62.0387 20.006 62.0406 20.0026C62.0449 19.995 62.0339 20.0189 61.9763 20.0673L62.9415 21.2156L63.9066 22.3638C64.5073 21.8589 64.9335 21.1725 65.0144 20.3277L63.5213 20.1846ZM62.9415 21.2156L61.9763 20.0673L61.4531 20.5071L62.4183 21.6553L63.3835 22.8035L63.9066 22.3638L62.9415 21.2156ZM62.4183 21.6553L61.4531 20.5071L60.93 20.9468L61.8951 22.0951L62.8603 23.2433L63.3835 22.8035L62.4183 21.6553ZM61.8951 22.0951L60.93 20.9468C60.1879 21.5706 59.8498 22.4491 59.9685 23.4042L61.457 23.2191L62.9456 23.0341C62.9435 23.0173 62.9512 23.0647 62.9216 23.1407C62.9082 23.1752 62.8916 23.2032 62.8768 23.2232C62.8626 23.2424 62.8543 23.2483 62.8603 23.2433L61.8951 22.0951ZM61.457 23.2191L59.9685 23.4042L60.0536 24.0884L61.5421 23.9034L63.0307 23.7183L62.9456 23.0341L61.457 23.2191ZM61.5421 23.9034L60.0536 24.0884L60.1386 24.7727L61.6272 24.5877L63.1157 24.4026L63.0307 23.7183L61.5421 23.9034ZM61.6272 24.5877L60.1386 24.7727C60.144 24.8159 60.1307 24.7715 60.1637 24.6813C60.1797 24.6372 60.2028 24.5939 60.2312 24.5551C60.2593 24.5168 60.2859 24.492 60.3026 24.4786L61.2396 25.65L62.1765 26.8214C62.9617 26.1934 63.2261 25.2906 63.1157 24.4026L61.6272 24.5877ZM61.2396 25.65L60.3026 24.4786L59.83 24.8567L60.7669 26.0281L61.7039 27.1994L62.1765 26.8214L61.2396 25.65ZM60.7669 26.0281L59.83 24.8567L59.3574 25.2347L60.2943 26.4061L61.2313 27.5775L61.7039 27.1994L60.7669 26.0281ZM60.2943 26.4061L59.3574 25.2347C59.1504 25.4003 58.9361 25.5257 58.7128 25.617L59.2805 27.0054L59.8481 28.3939C60.3464 28.1902 60.808 27.916 61.2313 27.5775L60.2943 26.4061ZM59.2805 27.0054L58.7128 25.617L58.1716 25.8383L58.7393 27.2267L59.3069 28.6151L59.8481 28.3939L59.2805 27.0054ZM58.7393 27.2267L58.1716 25.8383L57.6304 26.0595L58.1981 27.448L58.7657 28.8364L59.3069 28.6151L58.7393 27.2267ZM58.1981 27.448L57.6304 26.0595C57.2418 26.2184 56.8657 26.3859 56.5025 26.562L57.1572 27.9116L57.8118 29.2612C58.1149 29.1142 58.4328 28.9725 58.7657 28.8364L58.1981 27.448ZM57.1572 27.9116L56.5025 26.562L56.0028 26.8044L56.6574 28.154L57.3121 29.5036L57.8118 29.2612L57.1572 27.9116ZM56.6574 28.154L56.0028 26.8044L55.5031 27.0468L56.1577 28.3964L56.8124 29.746L57.3121 29.5036L56.6574 28.154ZM56.1577 28.3964L55.5031 27.0468C55.2593 27.1651 55.0028 27.2599 54.7319 27.3308L55.112 28.7819L55.4921 30.2329C55.9492 30.1132 56.3899 29.951 56.8124 29.746L56.1577 28.3964ZM55.112 28.7819L54.7319 27.3308L54.1859 27.4739L54.5661 28.9249L54.9462 30.3759L55.4921 30.2329L55.112 28.7819ZM54.5661 28.9249L54.1859 27.4739L53.64 27.6169L54.0201 29.0679L54.4002 30.519L54.9462 30.3759L54.5661 28.9249ZM54.0201 29.0679L53.64 27.6169C53.5003 27.6535 53.3603 27.6589 53.2025 27.6275L52.9097 29.0986L52.6169 30.5698C53.2116 30.6881 53.8119 30.6731 54.4002 30.519L54.0201 29.0679ZM52.9097 29.0986L53.2025 27.6275L52.6381 27.5151L52.3453 28.9863L52.0525 30.4574L52.6169 30.5698L52.9097 29.0986ZM52.3453 28.9863L52.6381 27.5151L52.0737 27.4028L51.7809 28.874L51.4881 30.3451L52.0525 30.4574L52.3453 28.9863ZM51.7809 28.874L52.0737 27.4028C51.3507 27.2589 50.6451 27.372 50.0032 27.681L50.654 29.0325L51.3048 30.384C51.4129 30.3319 51.4586 30.3392 51.4881 30.3451L51.7809 28.874ZM50.654 29.0325L50.0032 27.681L49.4407 27.9519L50.0915 29.3033L50.7423 30.6548L51.3048 30.384L50.654 29.0325ZM50.0915 29.3033L49.4407 27.9519L48.8782 28.2227L49.529 29.5742L50.1798 30.9257L50.7423 30.6548L50.0915 29.3033ZM49.529 29.5742L48.8782 28.2227C48.6889 28.3139 48.542 28.3395 48.4233 28.3379L48.404 29.8378L48.3847 31.3377C49.016 31.3458 49.6191 31.1956 50.1798 30.9257L49.529 29.5742ZM48.404 29.8378L48.4233 28.3379L47.8608 28.3307L47.8415 29.8306L47.8222 31.3305L48.3847 31.3377L48.404 29.8378ZM47.8415 29.8306L47.8608 28.3307L47.2983 28.3235L47.279 29.8234L47.2597 31.3232L47.8222 31.3305L47.8415 29.8306ZM47.279 29.8234L47.2983 28.3235C46.936 28.3188 46.5737 28.3096 46.2113 28.2957L46.154 29.7946L46.0966 31.2935C46.4843 31.3084 46.872 31.3183 47.2597 31.3232L47.279 29.8234ZM46.154 29.7946L46.2113 28.2957L45.6488 28.2742L45.5915 29.7731L45.5341 31.272L46.0966 31.2935L46.154 29.7946ZM45.5915 29.7731L45.6488 28.2742L45.0863 28.2527L45.029 29.7516L44.9716 31.2505L45.5341 31.272L45.5915 29.7731ZM45.029 29.7516L45.0863 28.2527C44.7843 28.2411 44.4808 28.2075 44.1754 28.1513L43.904 29.6266L43.6326 31.1018C44.0772 31.1836 44.5237 31.2334 44.9716 31.2505L45.029 29.7516ZM43.904 29.6266L44.1754 28.1513L43.6129 28.0479L43.3415 29.5231L43.0701 30.9984L43.6326 31.1018L43.904 29.6266ZM43.3415 29.5231L43.6129 28.0479L43.0504 27.9444L42.779 29.4196L42.5076 30.8949L43.0701 30.9984L43.3415 29.5231ZM42.779 29.4196L43.0504 27.9444C42.7767 27.894 42.4956 27.8134 42.2061 27.6988L41.654 29.0935L41.1019 30.4882C41.5624 30.6705 42.0313 30.8073 42.5076 30.8949L42.779 29.4196ZM41.654 29.0935L42.2061 27.6988L41.6436 27.4761L41.0915 28.8708L40.5394 30.2655L41.1019 30.4882L41.654 29.0935ZM41.0915 28.8708L41.6436 27.4761L41.0811 27.2534L40.529 28.6481L39.9769 30.0428L40.5394 30.2655L41.0915 28.8708ZM40.529 28.6481L41.0811 27.2534C40.548 27.0424 39.9913 26.9256 39.4188 26.92L39.404 28.4199L39.3892 29.9198C39.5667 29.9216 39.76 29.957 39.9769 30.0428L40.529 28.6481ZM39.404 28.4199L39.4188 26.92L38.8563 26.9144L38.8415 28.4144L38.8267 29.9143L39.3892 29.9198L39.404 28.4199ZM38.8415 28.4144L38.8563 26.9144L38.2938 26.9089L38.279 28.4088L38.2642 29.9087L38.8267 29.9143L38.8415 28.4144ZM38.279 28.4088L38.2938 26.9089C37.5477 26.9015 36.8755 27.1611 36.3015 27.5576L37.154 28.7918L38.0065 30.026C38.1825 29.9044 38.2603 29.9087 38.2642 29.9087L38.279 28.4088ZM37.154 28.7918L36.3015 27.5576L35.739 27.9461L36.5915 29.1803L37.444 30.4145L38.0065 30.026L37.154 28.7918ZM36.5915 29.1803L35.739 27.9461L35.1765 28.3346L36.029 29.5688L36.8815 30.803L37.444 30.4145L36.5915 29.1803ZM36.029 29.5688L35.1765 28.3346C35.1266 28.3691 35.1283 28.3558 35.1785 28.346C35.203 28.3412 35.2321 28.3387 35.263 28.3403C35.2938 28.3419 35.3182 28.3472 35.3343 28.352L34.904 29.7889L34.4737 31.2259C35.3594 31.4911 36.2008 31.2732 36.8815 30.803L36.029 29.5688ZM34.904 29.7889L35.3343 28.352L34.7718 28.1835L34.3415 29.6205L33.9112 31.0574L34.4737 31.2259L34.904 29.7889ZM34.3415 29.6205L34.7718 28.1835L34.2093 28.0151L33.779 29.452L33.3487 30.889L33.9112 31.0574L34.3415 29.6205ZM33.779 29.452L34.2093 28.0151C33.6665 27.8525 33.1085 27.7875 32.5438 27.8291L32.654 29.325L32.7642 30.821C32.9495 30.8073 33.1415 30.8269 33.3487 30.889L33.779 29.452ZM32.654 29.325L32.5438 27.8291L31.9813 27.8706L32.0915 29.3665L32.2017 30.8624L32.7642 30.821L32.654 29.325ZM32.0915 29.3665L31.9813 27.8706L31.4188 27.912L31.529 29.4079L31.6392 30.9039L32.2017 30.8624L32.0915 29.3665ZM31.529 29.4079L31.4188 27.912C31.3697 27.9156 31.2803 27.9116 31.1232 27.8257L30.404 29.1421L29.6848 30.4584C30.2777 30.7823 30.9383 30.9555 31.6392 30.9039L31.529 29.4079ZM30.404 29.1421L31.1232 27.8257L30.5607 27.5184L29.8415 28.8348L29.1223 30.1511L29.6848 30.4584L30.404 29.1421ZM29.8415 28.8348L30.5607 27.5184L29.9982 27.2111L29.279 28.5275L28.5598 29.8438L29.1223 30.1511L29.8415 28.8348ZM29.279 28.5275L29.9982 27.2111C29.3527 26.8584 28.6212 26.7095 27.8598 26.8618L28.154 28.3326L28.4482 29.8035C28.451 29.8029 28.4528 29.8027 28.4538 29.8026C28.4547 29.8025 28.4552 29.8025 28.4554 29.8025C28.4555 29.8025 28.4558 29.8025 28.4564 29.8025C28.457 29.8026 28.4584 29.8027 28.4605 29.8031C28.4672 29.8042 28.4993 29.8107 28.5598 29.8438L29.279 28.5275ZM28.154 28.3326L27.8598 26.8618L27.2973 26.9743L27.5915 28.4451L27.8857 29.916L28.4482 29.8035L28.154 28.3326ZM27.5915 28.4451L27.2973 26.9743L26.7348 27.0868L27.029 28.5576L27.3232 30.0285L27.8857 29.916L27.5915 28.4451ZM27.029 28.5576L26.7348 27.0868C26.5361 27.1265 26.3434 27.1296 26.148 27.0974L25.904 28.5774L25.66 30.0574C26.2146 30.1488 26.7719 30.1387 27.3232 30.0285L27.029 28.5576ZM25.904 28.5774L26.148 27.0974L25.5855 27.0047L25.3415 28.4847L25.0975 29.9647L25.66 30.0574L25.904 28.5774ZM25.3415 28.4847L25.5855 27.0047L25.023 26.9119L24.779 28.392L24.535 29.872L25.0975 29.9647L25.3415 28.4847ZM24.779 28.392L25.023 26.9119C24.4289 26.814 23.835 26.8485 23.256 27.0078L23.654 28.454L24.052 29.9003C24.223 29.8532 24.379 29.8463 24.535 29.872L24.779 28.392ZM23.654 28.454L23.256 27.0078L22.6935 27.1626L23.0915 28.6089L23.4895 30.0551L24.052 29.9003L23.654 28.454ZM23.0915 28.6089L22.6935 27.1626L22.131 27.3174L22.529 28.7637L22.927 30.2099L23.4895 30.0551L23.0915 28.6089ZM22.529 28.7637L22.131 27.3174C21.7352 27.4264 21.3398 27.5444 20.9448 27.6714L21.404 29.0994L21.8632 30.5273C22.2182 30.4132 22.5728 30.3074 22.927 30.2099L22.529 28.7637ZM21.404 29.0994L20.9448 27.6714L20.3823 27.8523L20.8415 29.2803L21.3007 30.7082L21.8632 30.5273L21.404 29.0994ZM20.8415 29.2803L20.3823 27.8523L19.8198 28.0332L20.279 29.4611L20.7382 30.8891L21.3007 30.7082L20.8415 29.2803ZM20.279 29.4611L19.8198 28.0332C19.6744 28.0799 19.5523 28.085 19.4308 28.0622L19.154 29.5364L18.8772 31.0107C19.5057 31.1287 20.1335 31.0836 20.7382 30.8891L20.279 29.4611ZM19.154 29.5364L19.4308 28.0622L18.8683 27.9566L18.5915 29.4308L18.3147 30.9051L18.8772 31.0107L19.154 29.5364ZM18.5915 29.4308L18.8683 27.9566L18.3058 27.851L18.029 29.3252L17.7522 30.7995L18.3147 30.9051L18.5915 29.4308ZM18.029 29.3252L18.3058 27.851C17.8269 27.7611 17.3443 27.7226 16.86 27.7368L16.904 29.2361L16.948 30.7355C17.2137 30.7277 17.4811 30.7486 17.7522 30.7995L18.029 29.3252ZM16.904 29.2361L16.86 27.7368L16.2975 27.7533L16.3415 29.2526L16.3855 30.752L16.948 30.7355L16.904 29.2361ZM16.3415 29.2526L16.2975 27.7533L15.735 27.7698L15.779 29.2691L15.823 30.7685L16.3855 30.752L16.3415 29.2526ZM15.779 29.2691L15.735 27.7698C15.3065 27.7824 14.8786 27.8178 14.4515 27.876L14.654 29.3623L14.8565 30.8486C15.1794 30.8046 15.5015 30.7779 15.823 30.7685L15.779 29.2691ZM14.654 29.3623L14.4515 27.876L13.889 27.9527L14.0915 29.4389L14.294 30.9252L14.8565 30.8486L14.654 29.3623ZM14.0915 29.4389L13.889 27.9527L13.3265 28.0293L13.529 29.5156L13.7315 31.0019L14.294 30.9252L14.0915 29.4389ZM13.529 29.5156L13.3265 28.0293C13.2383 28.0413 13.1427 28.034 13.0118 27.9773L12.4158 29.3538L11.8198 30.7304C12.4232 30.9916 13.0696 31.0921 13.7315 31.0019L13.529 29.5156ZM12.4158 29.3538L13.0118 27.9773L12.4611 27.7389L11.8651 29.1154L11.2691 30.4919L11.8198 30.7304L12.4158 29.3538ZM11.8651 29.1154L12.4611 27.7389L11.9104 27.5005L11.3144 28.877L10.7184 30.2535L11.2691 30.4919L11.8651 29.1154ZM11.3144 28.877L11.9104 27.5005C11.204 27.1947 10.4594 27.1666 9.74151 27.364L10.1393 28.8103L10.537 30.2566C10.6517 30.225 10.6905 30.2414 10.7184 30.2535L11.3144 28.877ZM10.1393 28.8103L9.74151 27.364L9.11707 27.5357L9.51481 28.982L9.91255 30.4283L10.537 30.2566L10.1393 28.8103ZM9.51481 28.982L9.11707 27.5357L8.49263 27.7074L8.89037 29.1537L9.28811 30.6L9.91255 30.4283L9.51481 28.982ZM8.89037 29.1537L8.49263 27.7074C8.52365 27.6989 8.67413 27.6692 8.86982 27.7446C9.06214 27.8186 9.14576 27.9356 9.15295 27.9465L7.90112 28.7728L6.64928 29.5992C6.89968 29.9785 7.26978 30.3432 7.79185 30.5442C8.31729 30.7465 8.84079 30.7231 9.28811 30.6L8.89037 29.1537ZM7.90112 28.7728L9.15295 27.9465L8.78815 27.3938L7.53631 28.2202L6.28448 29.0466L6.64928 29.5992L7.90112 28.7728ZM7.53631 28.2202L8.78815 27.3938L8.42334 26.8412L7.1715 27.6676L5.91967 28.494L6.28448 29.0466L7.53631 28.2202ZM7.1715 27.6676L8.42334 26.8412C8.00581 26.2087 7.41101 25.7284 6.64849 25.5073L6.23081 26.948L5.81312 28.3887C5.82879 28.3932 5.83535 28.3973 5.84257 28.4028C5.85152 28.4096 5.87956 28.4332 5.91967 28.494L7.1715 27.6676ZM6.23081 26.948L6.64849 25.5073L6.0726 25.3404L5.65492 26.781L5.23723 28.2217L5.81312 28.3887L6.23081 26.948ZM5.65492 26.781L6.0726 25.3404L5.49672 25.1734L5.07903 26.6141L4.66134 28.0547L5.23723 28.2217L5.65492 26.781ZM5.07903 26.6141L5.49672 25.1734C5.38222 25.1402 5.31393 25.0926 5.25396 25.0235L4.12087 26.0064L2.98777 26.9893C3.4375 27.5078 4.00799 27.8653 4.66134 28.0547L5.07903 26.6141ZM4.12087 26.0064L5.25396 25.0235L4.87168 24.5828L3.73859 25.5657L2.6055 26.5486L2.98777 26.9893L4.12087 26.0064ZM3.73859 25.5657L4.87168 24.5828L4.48941 24.1421L3.35632 25.1251L2.22323 26.108L2.6055 26.5486L3.73859 25.5657ZM3.35632 25.1251L4.48941 24.1421C4.29533 23.9184 4.12074 23.6756 3.96561 23.4121L2.67307 24.1733L1.38054 24.9344C1.6267 25.3525 1.9076 25.7441 2.22323 26.108L3.35632 25.1251ZM2.67307 24.1733L3.96561 23.4121L3.66463 22.901L2.3721 23.6622L1.07956 24.4233L1.38054 24.9344L2.67307 24.1733ZM2.3721 23.6622L3.66463 22.901L3.36366 22.3899L2.07112 23.1511L0.778589 23.9122L1.07956 24.4233L2.3721 23.6622ZM2.07112 23.1511L3.36366 22.3899C3.37021 22.4011 3.38037 22.4214 3.38908 22.4499C3.39788 22.4786 3.40288 22.5082 3.40428 22.5357C3.40718 22.5928 3.3933 22.6064 3.41091 22.5613L2.01344 22.0162L0.615968 21.4712C0.311114 22.2528 0.312432 23.1207 0.778589 23.9122L2.07112 23.1511ZM2.01344 22.0162L3.41091 22.5613L3.6542 21.9375L2.25673 21.3924L0.859258 20.8474L0.615968 21.4712L2.01344 22.0162ZM2.25673 21.3924L3.6542 21.9375L3.89749 21.3137L2.50002 20.7687L1.10255 20.2236L0.859258 20.8474L2.25673 21.3924ZM2.50002 20.7687L3.89749 21.3137C4.16027 20.6399 4.23831 19.8956 4.00069 19.1513L2.57174 19.6075L1.1428 20.0637C1.14287 20.0639 1.1428 20.0637 1.14268 20.0632C1.14264 20.063 1.1426 20.0628 1.14256 20.0626C1.14253 20.0624 1.14252 20.0623 1.14253 20.0623C1.14253 20.0623 1.14255 20.0625 1.14258 20.0629C1.14261 20.0633 1.14264 20.0639 1.14267 20.0648C1.14272 20.0665 1.14272 20.0695 1.14245 20.074C1.1414 20.091 1.13553 20.139 1.10255 20.2236L2.50002 20.7687ZM2.57174 19.6075L4.00069 19.1513L3.82912 18.6139L2.40018 19.0701L0.971232 19.5263L1.1428 20.0637L2.57174 19.6075ZM2.40018 19.0701L3.82912 18.6139L3.65756 18.0765L2.22861 18.5327L0.799666 18.9889L0.971232 19.5263L2.40018 19.0701ZM2.22861 18.5327L3.65756 18.0765C3.60986 17.9271 3.59606 17.7803 3.61621 17.6205L2.12801 17.4328L0.639803 17.2451C0.565338 17.8353 0.618608 18.4218 0.799666 18.9889L2.22861 18.5327ZM2.12801 17.4328L3.61621 17.6205L3.68717 17.058L2.19897 16.8703L0.710764 16.6826L0.639803 17.2451L2.12801 17.4328ZM2.19897 16.8703L3.68717 17.058L3.75813 16.4955L2.26993 16.3078L0.781725 16.1201L0.710764 16.6826L2.19897 16.8703ZM2.26993 16.3078L3.75813 16.4955C3.8413 15.8363 3.73659 15.1942 3.48098 14.5946L2.10111 15.1828L0.721249 15.771C0.785344 15.9214 0.793169 16.0293 0.781725 16.1201L2.26993 16.3078ZM2.10111 15.1828L3.48098 14.5946L3.2412 14.0321L1.86134 14.6203L0.481473 15.2085L0.721249 15.771L2.10111 15.1828ZM1.86134 14.6203L3.2412 14.0321L3.00143 13.4696L1.62156 14.0578L0.241697 14.646L0.481473 15.2085L1.86134 14.6203ZM1.62156 14.0578L3.00143 13.4696C2.9961 13.4571 2.99594 13.4538 2.99705 13.4589C2.99822 13.4643 2.99985 13.4748 2.99994 13.4887C3.00002 13.5027 2.99852 13.515 2.99669 13.5238C2.99492 13.5324 2.99372 13.5335 2.99674 13.5263L1.61472 12.9432L0.232708 12.3601C-0.0842502 13.1113 -0.0739026 13.9056 0.241697 14.646L1.62156 14.0578ZM1.61472 12.9432L2.99674 13.5263L3.22968 12.9743L1.84766 12.3912L0.465645 11.808L0.232708 12.3601L1.61472 12.9432ZM1.84766 12.3912L3.22968 12.9743L3.46262 12.4222L2.0806 11.8391L0.698583 11.256L0.465645 11.808L1.84766 12.3912ZM2.0806 11.8391L3.46262 12.4222C3.6323 12.0201 3.78002 11.628 3.90421 11.2465L2.47788 10.7822L1.05155 10.3179C0.956616 10.6095 0.839486 10.922 0.698583 11.256L2.0806 11.8391ZM2.47788 10.7822L3.90421 11.2465L4.06855 10.7417L2.64222 10.2773L1.21589 9.81302L1.05155 10.3179L2.47788 10.7822ZM2.64222 10.2773L4.06855 10.7417L4.23289 10.2368L2.80656 9.7725L1.38023 9.30819L1.21589 9.81302L2.64222 10.2773ZM2.80656 9.7725L4.23289 10.2368C4.3845 9.77109 4.47295 9.28559 4.50571 8.78626L3.00892 8.68807L1.51214 8.58988C1.4942 8.86335 1.44774 9.1008 1.38023 9.30819L2.80656 9.7725ZM3.00892 8.68807L4.50571 8.78626L4.54373 8.20667L3.04695 8.10848L1.55016 8.01029L1.51214 8.58988L3.00892 8.68807ZM3.04695 8.10848L4.54373 8.20667L4.58175 7.62708L3.08497 7.52889L1.58818 7.4307L1.55016 8.01029L3.04695 8.10848ZM3.08497 7.52889L4.58175 7.62708C4.58685 7.54931 4.60421 7.51799 4.63465 7.48174L3.48601 6.51705L2.33737 5.55237C1.88378 6.09245 1.63378 6.73569 1.58818 7.4307L3.08497 7.52889ZM3.48601 6.51705L4.63465 7.48174L4.99768 7.04949L3.84904 6.0848L2.7004 5.12012L2.33737 5.55237L3.48601 6.51705ZM3.84904 6.0848L4.99768 7.04949L5.36071 6.61724L4.21207 5.65255L3.06342 4.68787L2.7004 5.12012L3.84904 6.0848ZM4.21207 5.65255L5.36071 6.61724C5.5955 6.33767 5.83637 6.05725 6.08334 5.77597L4.95615 4.7863L3.82896 3.79663C3.56785 4.09402 3.31266 4.3911 3.06342 4.68787L4.21207 5.65255ZM4.95615 4.7863L6.08334 5.77597L6.4644 5.34196L5.33721 4.35229L4.21002 3.36262L3.82896 3.79663L4.95615 4.7863ZM5.33721 4.35229L6.4644 5.34196L6.84545 4.90795L5.71826 3.91828L4.59108 2.92861L4.21002 3.36262L5.33721 4.35229ZM5.71826 3.91828L6.84545 4.90795C6.90042 4.84535 6.95295 4.81225 7.03825 4.79008L6.66093 3.33831L6.28361 1.88654C5.62009 2.05899 5.04419 2.41254 4.59108 2.92861L5.71826 3.91828ZM6.66093 3.33831L7.03825 4.79008L7.59985 4.64412L7.22253 3.19235L6.84521 1.74058L6.28361 1.88654L6.66093 3.33831ZM7.22253 3.19235L7.59985 4.64412L8.16146 4.49815L7.78414 3.04639L7.40682 1.59462L6.84521 1.74058L7.22253 3.19235ZM7.78414 3.04639L8.16146 4.49815C8.71068 4.35541 9.22302 4.11791 9.69503 3.79809L8.85362 2.5563L8.01222 1.31451C7.80706 1.45352 7.6064 1.54275 7.40682 1.59462L7.78414 3.04639ZM8.85362 2.5563L9.69503 3.79809L10.2029 3.45396L9.3615 2.21217L8.52009 0.970385L8.01222 1.31451L8.85362 2.5563ZM9.3615 2.21217L10.2029 3.45396L10.7108 3.10984L9.86937 1.86805L9.02797 0.62626L8.52009 0.970385L9.3615 2.21217ZM9.86937 1.86805L10.7108 3.10984C10.8002 3.04926 10.8265 3.04619 10.7948 3.05627C10.7585 3.06786 10.6303 3.10077 10.4476 3.06541L10.7328 1.59275L11.0179 0.120102C10.1926 -0.03968 9.4814 0.319025 9.02797 0.62626L9.86937 1.86805ZM10.7328 1.59275L10.4476 3.06541L10.8032 3.13424L11.0883 1.66159L11.3734 0.188933L11.0179 0.120102L10.7328 1.59275ZM11.0883 1.66159L10.8032 3.13424L11.1587 3.20307L11.4438 1.73042L11.7289 0.257765L11.3734 0.188933L11.0883 1.66159ZM11.4438 1.73042L11.1587 3.20307C11.2478 3.22033 11.2159 3.2212 11.131 3.18561C11.0944 3.1703 10.951 3.10936 10.793 2.97205C10.6372 2.83663 10.2993 2.47226 10.2993 1.87932H11.7993H13.2993C13.2993 1.25969 12.9466 0.869097 12.7612 0.707927C12.5736 0.544861 12.3857 0.458634 12.2899 0.418513C12.0864 0.333286 11.8768 0.286393 11.7289 0.257765L11.4438 1.73042ZM11.7993 1.87932H10.2993V1.95939H11.7993H13.2993V1.87932H11.7993ZM11.7993 1.95939H10.2993V2.03947H11.7993H13.2993V1.95939H11.7993ZM11.7993 2.03947H10.2993C10.2993 2.57296 10.5717 3.01378 10.9312 3.27282C11.2164 3.47826 11.4966 3.53077 11.6104 3.54796C11.8525 3.58455 12.0616 3.55779 12.1386 3.54751C12.3388 3.52076 12.561 3.4654 12.7608 3.41028L12.3618 1.96432L11.9628 0.51836C11.7876 0.566712 11.7286 0.57562 11.7413 0.573924C11.7498 0.572789 11.7781 0.569189 11.8204 0.567553C11.8565 0.566155 11.9439 0.564305 12.0586 0.581633C12.1489 0.595275 12.4115 0.641792 12.685 0.838799C12.8358 0.947454 12.9996 1.10948 13.1226 1.33805C13.2477 1.57075 13.2993 1.81489 13.2993 2.03947H11.7993ZM12.3618 1.96432L12.7608 3.41028L13.3233 3.25506L12.9243 1.8091L12.5253 0.363142L11.9628 0.51836L12.3618 1.96432Z" fill="#34C759"/>
</svg>
