<svg width="84" height="7" viewBox="0 0 84 7" fill="none" xmlns="http://www.w3.org/2000/svg">
<path d="M1.5 1.73633C0.671573 1.73633 0 2.4079 0 3.23633C0 4.06476 0.671573 4.73633 1.5 4.73633V3.23633V1.73633ZM1.6 3.23633L2.47277 2.01638L2.08132 1.73633H1.6V3.23633ZM5.82 4.10869L4.90088 2.92327L5.82 4.10869ZM9.42 4.40989L8.59693 5.66391L9.42 4.40989ZM11.58 4.19577L10.9344 2.84184L11.58 4.19577ZM12.3 3.85243L11.6544 2.49849L12.3 3.85243ZM13.74 3.08512L12.9789 1.79256L13.74 3.08512ZM15.18 2.23721L14.4189 0.944641L15.18 2.23721ZM17.34 2.59658L18.0568 1.27892L17.34 2.59658ZM18.06 2.98824L17.3432 4.3059L18.06 2.98824ZM20.94 4.07639L20.4797 5.50401L20.94 4.07639ZM32.46 2.61066L32.1553 4.07939L32.46 2.61066ZM36.78 2.27021L36.3943 0.82065L36.78 2.27021ZM38.22 1.88704L38.6057 3.3366L38.22 1.88704ZM42.54 3.92455L42.7165 5.41413L42.54 3.92455ZM43.98 3.75391L43.8035 2.26433L43.98 3.75391ZM51.9 3.68617L50.9191 2.55137L51.9 3.68617ZM54.06 2.26769L53.7081 0.809542L54.06 2.26769ZM58.38 2.11153L58.13 3.59055L58.38 2.11153ZM61.26 4.40833L60.1956 5.46528L61.26 4.40833ZM63.42 3.57399L62.318 2.55635L63.42 3.57399ZM65.58 2.54887L64.6862 3.75346L65.58 2.54887ZM67.02 3.6174L67.9138 2.41281L67.02 3.6174ZM68.46 3.45334L67.4157 2.3766L68.46 3.45334ZM69.18 2.755L68.1357 1.67826L69.18 2.755ZM69.9 2.05667L70.9443 3.1334V3.1334L69.9 2.05667ZM72.78 1.89852L72.4161 3.35371L72.78 1.89852ZM74.22 2.60856L73.3308 3.81659L74.22 2.60856ZM75.66 3.66849L76.5492 2.46046L75.66 3.66849ZM81.42 2.52083L80.9297 1.10323L81.42 2.52083ZM82.32 2.75407L83.7998 2.50859L83.776 2.36547L83.7253 2.22954L82.32 2.75407ZM82.4 3.23633L80.9202 3.48181L81.1283 4.73633H82.4V3.23633ZM82.5 4.73633C83.3284 4.73633 84 4.06476 84 3.23633C84 2.4079 83.3284 1.73633 82.5 1.73633V3.23633V4.73633ZM1.5 3.23633V4.73633H1.6V3.23633V1.73633H1.5V3.23633ZM1.6 3.23633L0.727227 4.45627L2.11723 5.45071L2.99 4.23076L3.86277 3.01082L2.47277 2.01638L1.6 3.23633ZM2.99 4.23076L2.11723 5.45071C2.66208 5.84051 3.26708 6.1733 3.90884 6.30597C4.60349 6.44956 5.36839 6.35691 6.01912 5.85237L5.1 4.66694L4.18088 3.48152C4.24594 3.43108 4.32979 3.39232 4.4158 3.37583C4.49503 3.36065 4.53524 3.37203 4.51616 3.36808C4.49431 3.36356 4.42726 3.34548 4.30956 3.28711C4.1931 3.22936 4.04463 3.14092 3.86277 3.01082L2.99 4.23076ZM5.1 4.66694L6.01912 5.85237L6.73912 5.29411L5.82 4.10869L4.90088 2.92327L4.18088 3.48152L5.1 4.66694ZM5.82 4.10869L6.73912 5.29411L7.45912 4.73586L6.54 3.55044L5.62088 2.36502L4.90088 2.92327L5.82 4.10869ZM6.54 3.55044L7.45912 4.73586C7.52313 4.68623 7.48164 4.73936 7.3491 4.74725C7.287 4.75094 7.23182 4.74242 7.19106 4.73026C7.15282 4.71885 7.14128 4.7085 7.15693 4.71877L7.98 3.46476L8.80307 2.21074C8.34704 1.91143 7.79214 1.71558 7.1709 1.75254C6.55835 1.78899 6.03687 2.04249 5.62088 2.36502L6.54 3.55044ZM7.98 3.46476L7.15693 4.71877L7.87693 5.19134L8.7 3.93732L9.52307 2.68331L8.80307 2.21074L7.98 3.46476ZM8.7 3.93732L7.87693 5.19134L8.59693 5.66391L9.42 4.40989L10.2431 3.15587L9.52307 2.68331L8.7 3.93732ZM9.42 4.40989L8.59693 5.66391C9.47319 6.23903 10.5084 6.36859 11.5056 5.89305L10.86 4.53912L10.2144 3.18518C10.1991 3.19246 10.1998 3.19005 10.2149 3.18713C10.2222 3.18572 10.2314 3.18446 10.2422 3.1839C10.253 3.18334 10.2638 3.18357 10.2741 3.18448C10.2956 3.18642 10.3066 3.19067 10.3043 3.18978C10.3009 3.18854 10.2805 3.18044 10.2431 3.15587L9.42 4.40989ZM10.86 4.53912L11.5056 5.89305L12.2256 5.54971L11.58 4.19577L10.9344 2.84184L10.2144 3.18518L10.86 4.53912ZM11.58 4.19577L12.2256 5.54971L12.9456 5.20636L12.3 3.85243L11.6544 2.49849L10.9344 2.84184L11.58 4.19577ZM12.3 3.85243L12.9456 5.20636C13.4668 4.95784 13.9853 4.68141 14.5011 4.37769L13.74 3.08512L12.9789 1.79256C12.5347 2.05411 12.0932 2.28923 11.6544 2.49849L12.3 3.85243ZM13.74 3.08512L14.5011 4.37769L15.2211 3.95373L14.46 2.66116L13.6989 1.3686L12.9789 1.79256L13.74 3.08512ZM14.46 2.66116L15.2211 3.95373L15.9411 3.52977L15.18 2.23721L14.4189 0.944641L13.6989 1.3686L14.46 2.66116ZM15.18 2.23721L15.9411 3.52977C15.9705 3.51248 15.9827 3.50938 15.9784 3.5107C15.9763 3.51134 15.971 3.5128 15.9628 3.51415C15.9545 3.51551 15.9446 3.51653 15.9336 3.51677C15.9226 3.51702 15.9121 3.51646 15.9025 3.51532C15.893 3.51418 15.8858 3.51264 15.8815 3.51151C15.8725 3.50917 15.8794 3.50963 15.9032 3.52257L16.62 2.20491L17.3368 0.887252C16.383 0.368413 15.3421 0.401032 14.4189 0.944641L15.18 2.23721ZM16.62 2.20491L15.9032 3.52257L16.6232 3.91424L17.34 2.59658L18.0568 1.27892L17.3368 0.887252L16.62 2.20491ZM17.34 2.59658L16.6232 3.91424L17.3432 4.3059L18.06 2.98824L18.7768 1.67058L18.0568 1.27892L17.34 2.59658ZM18.06 2.98824L17.3432 4.3059C17.8984 4.60789 18.4639 4.85405 19.0397 5.03969L19.5 3.61207L19.9603 2.18445C19.5761 2.06054 19.1816 1.89082 18.7768 1.67058L18.06 2.98824ZM19.5 3.61207L19.0397 5.03969L19.7597 5.27185L20.22 3.84423L20.6803 2.41661L19.9603 2.18445L19.5 3.61207ZM20.22 3.84423L19.7597 5.27185L20.4797 5.50401L20.94 4.07639L21.4003 2.64878L20.6803 2.41661L20.22 3.84423ZM20.94 4.07639L20.4797 5.50401C21.4147 5.80552 22.3383 5.65016 23.1441 5.1731L22.38 3.88232L21.6159 2.59154C21.5228 2.64666 21.4726 2.65565 21.4597 2.6574C21.4507 2.6586 21.4363 2.66037 21.4003 2.64878L20.94 4.07639ZM22.38 3.88232L23.1441 5.1731L23.8641 4.74687L23.1 3.45609L22.3359 2.16531L21.6159 2.59154L22.38 3.88232ZM23.1 3.45609L23.8641 4.74687L24.5841 4.32064L23.82 3.02986L23.0559 1.73908L22.3359 2.16531L23.1 3.45609ZM23.82 3.02986L24.5841 4.32064C24.748 4.22363 24.7961 4.24775 24.8266 4.25695L25.26 2.82093L25.6934 1.38491C24.7639 1.10437 23.852 1.26777 23.0559 1.73908L23.82 3.02986ZM25.26 2.82093L24.8266 4.25695L25.5466 4.47426L25.98 3.03824L26.4134 1.60222L25.6934 1.38491L25.26 2.82093ZM25.98 3.03824L25.5466 4.47426L26.2666 4.69156L26.7 3.25554L27.1334 1.81952L26.4134 1.60222L25.98 3.03824ZM26.7 3.25554L26.2666 4.69156C27.1142 4.9474 27.9686 4.87121 28.7612 4.51061L28.14 3.14527L27.5188 1.77994C27.3514 1.8561 27.2458 1.85343 27.1334 1.81952L26.7 3.25554ZM28.14 3.14527L28.7612 4.51061L29.4812 4.18303L28.86 2.8177L28.2388 1.45237L27.5188 1.77994L28.14 3.14527ZM28.86 2.8177L29.4812 4.18303L30.2012 3.85545L29.58 2.49012L28.9588 1.12479L28.2388 1.45237L28.86 2.8177ZM29.58 2.49012L30.2012 3.85545C30.4146 3.75836 30.5712 3.75074 30.7153 3.78064L31.02 2.31192L31.3247 0.843191C30.5088 0.673927 29.7054 0.785114 28.9588 1.12479L29.58 2.49012ZM31.02 2.31192L30.7153 3.78064L31.4353 3.93002L31.74 2.46129L32.0447 0.992564L31.3247 0.843191L31.02 2.31192ZM31.74 2.46129L31.4353 3.93002L32.1553 4.07939L32.46 2.61066L32.7647 1.14194L32.0447 0.992564L31.74 2.46129ZM32.46 2.61066L32.1553 4.07939C32.7838 4.20978 33.4187 4.24334 34.0545 4.1775L33.9 2.68547L33.7455 1.19345C33.4213 1.22703 33.0962 1.2107 32.7647 1.14194L32.46 2.61066ZM33.9 2.68547L34.0545 4.1775L34.7745 4.10294L34.62 2.61091L34.4655 1.11889L33.7455 1.19345L33.9 2.68547ZM34.62 2.61091L34.7745 4.10294L35.4945 4.02838L35.34 2.53635L35.1855 1.04433L34.4655 1.11889L34.62 2.61091ZM35.34 2.53635L35.4945 4.02838C36.0548 3.97035 36.6121 3.86708 37.1657 3.71977L36.78 2.27021L36.3943 0.82065C35.9879 0.928782 35.5852 1.00294 35.1855 1.04433L35.34 2.53635ZM36.78 2.27021L37.1657 3.71977L37.8857 3.52819L37.5 2.07863L37.1143 0.629066L36.3943 0.82065L36.78 2.27021ZM37.5 2.07863L37.8857 3.52819L38.6057 3.3366L38.22 1.88704L37.8343 0.437483L37.1143 0.629066L37.5 2.07863ZM38.22 1.88704L38.6057 3.3366C38.6036 3.33715 38.5934 3.33941 38.578 3.33939C38.5626 3.33937 38.5525 3.33709 38.5507 3.3366C38.548 3.33587 38.6048 3.35045 38.7204 3.4433L39.66 2.27406L40.5996 1.10482C39.8472 0.50014 38.8864 0.157525 37.8343 0.437483L38.22 1.88704ZM39.66 2.27406L38.7204 3.4433L39.4404 4.0219L40.38 2.85266L41.3196 1.68343L40.5996 1.10482L39.66 2.27406ZM40.38 2.85266L39.4404 4.0219L40.1604 4.6005L41.1 3.43127L42.0396 2.26203L41.3196 1.68343L40.38 2.85266ZM41.1 3.43127L40.1604 4.6005C40.8638 5.16577 41.7343 5.53052 42.7165 5.41413L42.54 3.92455L42.3635 2.43497C42.358 2.43562 42.3442 2.43788 42.3061 2.42484C42.2615 2.40957 42.1721 2.36851 42.0396 2.26203L41.1 3.43127ZM42.54 3.92455L42.7165 5.41413L43.4365 5.32881L43.26 3.83923L43.0835 2.34965L42.3635 2.43497L42.54 3.92455ZM43.26 3.83923L43.4365 5.32881L44.1565 5.24349L43.98 3.75391L43.8035 2.26433L43.0835 2.34965L43.26 3.83923ZM43.98 3.75391L44.1565 5.24349C44.8342 5.16318 45.486 4.951 46.1069 4.63118L45.42 3.2977L44.7331 1.96422C44.394 2.13892 44.0858 2.23088 43.8035 2.26433L43.98 3.75391ZM45.42 3.2977L46.1069 4.63118L46.8269 4.26029L46.14 2.92682L45.4531 1.59334L44.7331 1.96422L45.42 3.2977ZM46.14 2.92682L46.8269 4.26029L47.5469 3.88941L46.86 2.55593L46.1731 1.22245L45.4531 1.59334L46.14 2.92682ZM46.86 2.55593L47.5469 3.88941C47.5368 3.8946 47.4998 3.9115 47.4396 3.92041C47.3774 3.92961 47.3142 3.92673 47.2589 3.91461C47.1525 3.89129 47.1565 3.85375 47.2649 3.95715L48.3 2.87151L49.3351 1.78587C48.9635 1.43162 48.4875 1.11267 47.9011 0.984155C47.2856 0.849273 46.6907 0.955806 46.1731 1.22245L46.86 2.55593ZM48.3 2.87151L47.2649 3.95715L47.9849 4.64362L49.02 3.55798L50.0551 2.47234L49.3351 1.78587L48.3 2.87151ZM49.02 3.55798L47.9849 4.64362L48.7049 5.33009L49.74 4.24445L50.7751 3.15881L50.0551 2.47234L49.02 3.55798ZM49.74 4.24445L48.7049 5.33009C49.1075 5.71389 49.6739 6.0702 50.3933 6.10222C51.126 6.13483 51.7265 5.81886 52.1609 5.44335L51.18 4.30854L50.1991 3.17374C50.1535 3.21314 50.274 3.09394 50.5267 3.10519C50.7661 3.11585 50.8525 3.23265 50.7751 3.15881L49.74 4.24445ZM51.18 4.30854L52.1609 5.44335L52.8809 4.82098L51.9 3.68617L50.9191 2.55137L50.1991 3.17374L51.18 4.30854ZM51.9 3.68617L52.8809 4.82098L53.6009 4.1986L52.62 3.0638L51.6391 1.929L50.9191 2.55137L51.9 3.68617ZM52.62 3.0638L53.6009 4.1986C53.95 3.89684 54.2211 3.77188 54.4119 3.72584L54.06 2.26769L53.7081 0.809542C52.9389 0.995155 52.25 1.40093 51.6391 1.929L52.62 3.0638ZM54.06 2.26769L54.4119 3.72584L55.1319 3.55209L54.78 2.09395L54.4281 0.6358L53.7081 0.809542L54.06 2.26769ZM54.78 2.09395L55.1319 3.55209L55.8519 3.37835L55.5 1.9202L55.1481 0.462057L54.4281 0.6358L54.78 2.09395ZM55.5 1.9202L55.8519 3.37835C56.1376 3.30939 56.4129 3.30034 56.69 3.34717L56.94 1.86815L57.19 0.389126C56.5071 0.27371 55.8224 0.299358 55.1481 0.462057L55.5 1.9202ZM56.94 1.86815L56.69 3.34717L57.41 3.46886L57.66 1.98984L57.91 0.510815L57.19 0.389126L56.94 1.86815ZM57.66 1.98984L57.41 3.46886L58.13 3.59055L58.38 2.11153L58.63 0.632503L57.91 0.510815L57.66 1.98984ZM58.38 2.11153L58.13 3.59055C58.1998 3.60235 58.4108 3.66796 58.7556 4.01521L59.82 2.95825L60.8843 1.9013C60.2692 1.28183 59.5202 0.782961 58.63 0.632503L58.38 2.11153ZM59.82 2.95825L58.7556 4.01521L59.4756 4.74025L60.54 3.68329L61.6043 2.62633L60.8843 1.9013L59.82 2.95825ZM60.54 3.68329L59.4756 4.74025L60.1956 5.46528L61.26 4.40833L62.3243 3.35137L61.6043 2.62633L60.54 3.68329ZM61.26 4.40833L60.1956 5.46528C60.6047 5.87721 61.227 6.28684 62.0369 6.2561C62.8304 6.22599 63.4189 5.78619 63.802 5.37131L62.7 4.35367L61.598 3.33603C61.5011 3.44095 61.6096 3.27016 61.9231 3.25826C62.253 3.24574 62.3953 3.4228 62.3243 3.35137L61.26 4.40833ZM62.7 4.35367L63.802 5.37131L64.522 4.59163L63.42 3.57399L62.318 2.55635L61.598 3.33603L62.7 4.35367ZM63.42 3.57399L64.522 4.59163L65.242 3.81194L64.14 2.7943L63.038 1.77666L62.318 2.55635L63.42 3.57399ZM64.14 2.7943L65.242 3.81194C65.3556 3.68893 65.3171 3.78682 65.112 3.82178C65.005 3.84002 64.8981 3.83191 64.8078 3.80612C64.7238 3.7821 64.6832 3.75129 64.6862 3.75346L65.58 2.54887L66.4738 1.34428C65.9853 0.981733 65.34 0.739662 64.608 0.86442C63.9229 0.981185 63.4044 1.37987 63.038 1.77666L64.14 2.7943ZM65.58 2.54887L64.6862 3.75346L65.4062 4.28773L66.3 3.08314L67.1938 1.87855L66.4738 1.34428L65.58 2.54887ZM66.3 3.08314L65.4062 4.28773L66.1262 4.82199L67.02 3.6174L67.9138 2.41281L67.1938 1.87855L66.3 3.08314ZM67.02 3.6174L66.1262 4.82199C66.5956 5.17035 67.2073 5.41392 67.9098 5.33388C68.5848 5.25697 69.1163 4.90641 69.5043 4.53007L68.46 3.45334L67.4157 2.3766C67.3237 2.46582 67.3752 2.37538 67.5702 2.35316C67.6671 2.34212 67.7579 2.35395 67.8294 2.37641C67.896 2.39732 67.924 2.42035 67.9138 2.41281L67.02 3.6174ZM68.46 3.45334L69.5043 4.53007L70.2243 3.83174L69.18 2.755L68.1357 1.67826L67.4157 2.3766L68.46 3.45334ZM69.18 2.755L70.2243 3.83174L70.9443 3.1334L69.9 2.05667L68.8557 0.979931L68.1357 1.67826L69.18 2.755ZM69.9 2.05667L70.9443 3.1334C71.0768 3.00495 71.1405 2.98478 71.128 2.98931C71.1194 2.99239 71.0962 2.99914 71.0622 3.00101C71.0279 3.0029 70.9975 2.99894 70.9761 2.99358L71.34 1.5384L71.7039 0.0832138C70.5504 -0.205262 69.5618 0.295044 68.8557 0.979931L69.9 2.05667ZM71.34 1.5384L70.9761 2.99358L71.6961 3.17364L72.06 1.71846L72.4239 0.263277L71.7039 0.0832138L71.34 1.5384ZM72.06 1.71846L71.6961 3.17364L72.4161 3.35371L72.78 1.89852L73.1439 0.443341L72.4239 0.263277L72.06 1.71846ZM72.78 1.89852L72.4161 3.35371C72.6721 3.41772 72.9767 3.55594 73.3308 3.81659L74.22 2.60856L75.1092 1.40053C74.5033 0.954553 73.848 0.619409 73.1439 0.443341L72.78 1.89852ZM74.22 2.60856L73.3308 3.81659L74.0508 4.34656L74.94 3.13853L75.8292 1.9305L75.1092 1.40053L74.22 2.60856ZM74.94 3.13853L74.0508 4.34656L74.7708 4.87652L75.66 3.66849L76.5492 2.46046L75.8292 1.9305L74.94 3.13853ZM75.66 3.66849L74.7708 4.87652C75.5591 5.45679 76.5347 5.72484 77.5612 5.39317L77.1 3.96583L76.6388 2.53848C76.634 2.54004 76.6395 2.53779 76.6527 2.53703C76.6661 2.53624 76.6774 2.53758 76.6833 2.5388C76.6958 2.54138 76.6519 2.53605 76.5492 2.46046L75.66 3.66849ZM77.1 3.96583L77.5612 5.39317L78.2812 5.16053L77.82 3.73319L77.3588 2.30585L76.6388 2.53848L77.1 3.96583ZM77.82 3.73319L78.2812 5.16053L79.0012 4.9279L78.54 3.50055L78.0788 2.07321L77.3588 2.30585L77.82 3.73319ZM78.54 3.50055L79.0012 4.9279C79.491 4.76964 79.9807 4.60583 80.4703 4.43649L79.98 3.01889L79.4897 1.60128C79.0193 1.76398 78.549 1.92129 78.0788 2.07321L78.54 3.50055ZM79.98 3.01889L80.4703 4.43649L81.1903 4.18746L80.7 2.76986L80.2097 1.35226L79.4897 1.60128L79.98 3.01889ZM80.7 2.76986L81.1903 4.18746L81.9103 3.93843L81.42 2.52083L80.9297 1.10323L80.2097 1.35226L80.7 2.76986ZM81.42 2.52083L81.9103 3.93843C82.1072 3.87034 82.1096 3.89318 81.9971 3.89427C81.9357 3.89487 81.7376 3.89082 81.4975 3.77573C81.2143 3.64004 80.955 3.38662 80.8247 3.03745L82.23 2.51293L83.6353 1.98841C83.2672 1.00209 82.3152 0.891028 81.9679 0.894414C81.5854 0.898143 81.2128 1.0053 80.9297 1.10323L81.42 2.52083ZM82.23 2.51293L80.8247 3.03745L80.9147 3.27859L82.32 2.75407L83.7253 2.22954L83.6353 1.98841L82.23 2.51293ZM82.32 2.75407L80.8402 2.99954L80.9202 3.48181L82.4 3.23633L83.8798 2.99085L83.7998 2.50859L82.32 2.75407ZM82.4 3.23633V4.73633H82.5V3.23633V1.73633H82.4V3.23633Z" fill="black"/>
</svg>
